<?xml version="1.0" encoding="UTF-8"?>
<svg version="1.1" viewBox="0 0 1024 1024" width="1024" height="1024" xmlns="http://www.w3.org/2000/svg">
<path transform="translate(0)" d="m0 0h1024v1024h-1024z" fill="#FCFDFD"/>
<path transform="translate(0)" d="m0 0h1024v1024h-1024zm503 71-30 3-30 5-30 7-29 9-28 11-22 10-22 12-19 11-19 13-12 9-16 13-10 9-8 7-19 19-9 11-8 9-13 17-13 18-11 18-10 17-11 21-14 34-8 24-7 26-7 36-3 27-1 13v46l3 33 5 31 10 40 12 35 10 23 8 16 10 19 11 18 13 19 13 17 9 11 9 10 11 12 18 18 8 7 13 11 19 14 18 12 15 9 22 12 23 11 28 11 32 10 26 6 31 5 30 3h51l30-3 36-6 31-8 30-10 28-12 16-8 19-10 19-12 16-11 17-13 13-11 10-9 8-7 13-13 7-8 9-10 11-14 14-18 8-12 12-19 15-28 10-22 11-29 9-30 6-26 5-29 3-30v-59l-3-29-5-28-6-25-7-22-8-23-11-25-12-24-15-25-11-16-9-12-11-14-12-14-11-12-20-20-11-9-14-12-18-13-21-14-26-15-29-14-23-9-33-11-24-6-28-5-25-3-13-1z" fill="#FCFDFD"/>
<path transform="translate(473,223)" d="m0 0 14 1 12 5 10 9 7 9 4 5 3-1h11l6-9 7-8 11-7 8-3 13-1 10 2 8 4 6 5 5 7v2l9-2h15l12 3 10 6 9 8 5 7v2l11-1 10 4 7 6 4 7v3l9 2 11 8 7 9 5 11 2 9v13l-1 4 7 2 8 6 8 9 4 9 2 9v14l10 13 5 11 2 9v18l-4 18-8 16 1 4 7 10 4 14v12l-3 12-5 9-9 10h-2l7 14 1 4v15l-4 10-4 6-8 8-12 6-6 1v7l-4 12-6 10-6 7-11 7-7 2-2 8-4 7-7 6-10 4h-10l-6 10-7 8-11 7-13 4-14 1h-11l-7 11-8 6-10 4h-18l-10-4-8-6-5-4-7-10-6-11-9 15-9 10-9 6-11 4-9 1-12-2-9-5-7-7-4-7v-2l-17 1-12-2-11-4-8-6-5-4-7-10-2-4h-11l-10-4-4-3v-2h-2l-5-9-1-7-9-3-11-8-8-11-5-11-2-12-6-1-10-5-4-3v-2l-3-1-7-10-3-8v-17l4-10 4-7-4-2-7-7-6-12-2-9v-12l2-10 6-12 4-6-8-16-3-11-1-8v-16l3-14 7-13 6-7 1-18 5-14 9-10 8-6 6-2v-17l3-12 6-11 7-8 10-6 8-2 1-5 6-8 8-5 3-1h14l2-4 7-9 10-7 12-5 6-1h16l8 2 2-5 7-8 10-5z" fill="#121E1E"/>
<path transform="translate(503,71)" d="m0 0h49l31 3 24 4 23 5 25 7 31 11 29 13 23 12 20 12 16 11 19 14 14 12 11 9 27 27 9 11 12 14 14 19 14 21 14 24 13 26 11 27 10 30 7 27 5 27 3 23 1 12v59l-4 37-7 36-7 26-10 30-10 24-11 23-13 23-9 14-12 17-10 13-9 11-12 14-11 12-14 14-8 7-13 11-17 13-18 13-20 12-16 9-16 8-20 9-26 10-31 9-26 6-34 5-22 2h-51l-37-4-29-5-28-7-36-12-30-13-20-10-24-14-18-12-19-14-13-11-8-7-10-9-19-19-7-8-12-14-15-20-11-16-11-18-10-18-8-16-8-17-9-24-9-28-9-38-4-26-3-33v-46l3-32 5-30 6-26 8-27 14-36 10-21 13-23 10-16 8-12 14-19 14-17 9-10 7-8 19-19 8-7 17-14 19-14 20-13 25-14 16-8 17-8 31-12 30-9 26-6 30-5zm12 27-29 2-32 5-27 6-33 10-28 11-25 12-23 13-19 12-18 13-13 11-11 9-8 8-8 7-7 8-15 16-11 14-10 13-13 19-12 20-13 25-12 28-10 30-8 32-5 29-2 18-1 15v38l2 25 5 32 7 31 9 29 8 21 9 21 13 25 11 18 10 15 9 12 8 10 9 11 11 12 8 9h2v2h2l2 4 10 9 11 10 10 8 16 12 20 13 21 12 23 12 29 12 30 10 29 7 30 5 34 3h34l33-3 25-4 27-6 26-8 24-9 24-11 21-11 21-13 18-13 13-10 13-11 10-9 25-25 9-11 8-9 14-19 16-24 13-23 14-29 10-26 8-26 7-30 5-32 2-22v-51l-3-29-5-28-7-28-11-33-11-25-8-16-11-20-12-19-14-19-13-16-12-14-11-11-3-4h-2l-1-3-8-7-13-12-17-13-19-14-25-15-27-14-17-8-27-10-23-7-24-6-29-5-36-3z" fill="#121E1E"/>
<path transform="translate(348,435)" d="m0 0 6 2 8 3 10 1 14-3 16 15 9 9 8 4 33 1 11 7 10 5 12 5 8 6-1 5-12 7-10-1h-51l-13 4-10 6-9 9-8 14-5 11-3 7-6 3-13 2-16 8-3 3h-2l-2 4-4 5-5 11-7-2-6-6-1-9 4-8 8-9 2-4v-9l-4-4-10-5-7-8-3-7v-13l4-8 4-1 7 3 6 1h43l7 4h9l6-4 3-5v-9l-4-6-6-3-10 1-2 1h-44l-7-4-7-7-5-10-1-5 36-12z" fill="#FCFDFD"/>
<path transform="translate(701,435)" d="m0 0 11 3 37 13 4 1-3 9-6 9-7 6-4 2h-44l-5-2h-7l-7 4-3 6v8l2 6 4 2 3 1h9l7-4 48-1 7-3 4 1 4 6 1 4v10l-4 9-6 7-12 7-2 3v8l8 13 1 4 5 4-1 9-5 5-6 3h-2l-7-14-8-9-14-7-19-4-5-6-9-20-7-10-7-7-14-8-9-2h-49l-11 1-10-5-5-5 2-4 8-5 16-6 11-7 6-3 31-1 10-5 21-21 5-2 11 3 14-2z" fill="#FCFDFD"/>
<path transform="translate(355,308)" d="m0 0h5l8 4 13-1 7 6v2l4 2 3 4v20l4 9 7 8 8 5 7 2h10l9-2 10 10 6 5v17l4 11 7 8 9 5 15 4 6 4 8 9 3 8v8l-8 7-3 4-40-20-4-1-27-1-8-6-8-8-8-7-1-5 1-3v-15l-4-10-8-9-8-4-12-2-11 2-9 5-7 8-4 9-1 17-19 7-21 7h-2v-7l4-10 5-6 7-6 1-2v-24l4-8 6-4 5 1 9 1 6-3 3-5v-9l-5-9-1-10 2-9 6-9z" fill="#FCFDFD"/>
<path transform="translate(691,308)" d="m0 0h6l7 4 5 7 2 6v14l-6 12 1 8 4 5 8 2 7-2 6 1 6 7 2 6v22l14 16 2 5 1 9-2 1-40-14v-14l-4-11-6-8-10-6-4-1h-16l-10 4-8 7-5 10-1 4v14l1 7-15 15-9 7-28 1-10 4-10 6-23 10-3-1-7-8-2-2 1-10 4-8 7-7 8-4 14-4 10-7 6-10 2-7v-16l13-12 3-2 8 1h11l11-4 9-8 6-12 1-9-1-11 14-14 12 1z" fill="#FCFDFD"/>
<path transform="translate(420,522)" d="m0 0h46l-6 11-4 9-2 7-1 18-13 11-8-1h-11l-10 3-8 6-6 9-2 6v22l-12 12h-6l-2-1h-9l-4 2-6-1-6-4-6-7-3-6-2-10 1-12 3-7 7-8 8-4 20-4 6-4 3-1 2-5 11-24 7-9 8-6z" fill="#FCFDFD"/>
<path transform="translate(586,522)" d="m0 0h47l8 4 8 9 16 32 8 6 8 2 13 2 8 4 7 8 3 8v17l-3 9-8 9-5 3-6 1-5-2h-7l-8 2-2-1v-2l-4-2-2-4-4-2-2-4 2-8v-9l-3-10-6-8-6-5-10-4h-13l-7 1-14-12-1-16-4-13-6-11z" fill="#FCFDFD"/>
<path transform="translate(460,588)" d="m0 0 5 5 7 8 10 5 9 1h15l1 5-4 11-6 10-5 6-10 7-16 9-6 5-5 7-5 14-2 5-5 2h-17l-10-4-7-6-6-10-1-9-4-4-1-4 3-5 7-7 1-2 5 1 7 2h10l10-3 9-7 6-10 2-7v-8l-3-12z" fill="#FCFDFD"/>
<path transform="translate(590,588)" d="m0 0 4 2 4 3-3 12v8l3 10 6 8 5 4 8 4 5 1h10l11-3 11 11v7l-4 4-2 12-6 8-7 6-8 3h-18l-5-2-7-19-6-8-7-6-18-10-10-9-6-9-5-14 1-4h12l13-2 8-4 5-4z" fill="#FCFDFD"/>
<path transform="translate(618,263)" d="m0 0h11l9 3 10 9 8 12 4 3-2 5-12 12-1 2-5-1-6-2h-15l-10 4-6 5-6 10-2 6v11l2 7v5l-10 9-3 2-4-1-10-5-5-1-20-1 1-6 6-11 9-10 11-7 15-8 8-9 4-9 6-29 5-3z" fill="#FCFDFD"/>
<path transform="translate(424,263)" d="m0 0h11l10 3 3 6 5 25 4 8 9 10 10 6 11 6 9 8 7 11 4 9v2l-20 1-10 3-6 4-4-1-12-11 1-7 1-3v-12l-4-11-8-9-8-4-3-1h-16l-10 3-9-8-7-11 5-5 9-12 7-6z" fill="#FCFDFD"/>
<path transform="translate(696,758)" d="m0 0 10 1 6 4 4 6 1 8-2 5h7l6 3 5 6 2 5v10l-4 8-7 7-21 12-13 6-12-22-20-40 3-3 28-14z" fill="#141F1F"/>
<path transform="translate(558,801)" d="m0 0h11l2 11 4 51v8l-6 1h-12l-2-20v-6h-26v28h-17l-1-1-1-69 1-1h17l1 13v13h25l-2-21v-6z" fill="#141F1F"/>
<path transform="translate(639,783)" d="m0 0 5 1 11 33 3 14-2 12-5 8-8 7-9 4-4 1h-12l-9-3-7-6-6-9-6-21-5-25 9-3 9-1 10 39 5 8 4 2h7l6-3 2-4v-10l-6-20-5-16 1-4z" fill="#141F20"/>
<path transform="translate(341,747)" d="m0 0 4 1 21 13 10 9 4 10v8l-4 9-7 8-10 4h-7l-10-4-10-7-7 10-5 7-8-4-7-5 5-10 15-24 11-18z" fill="#142020"/>
<path transform="translate(406,784)" d="m0 0h16l11 4 9 7 3 4-10 9-3 1-8-6-5-2h-6l-3 2v5l9 6 10 7 5 6 2 5v10l-4 8-7 6-10 3-13-1-14-7-7-6-4-7 12-9 5 4 5 5 6 3h9l2-2v-5l-11-7-9-7-5-6-1-3v-11l4-8 7-6z" fill="#142020"/>
<path transform="translate(571,246)" d="m0 0h11l5 5-1 8-3 10-3 19-4 8-9 6-14 8-8 7-2-1 1-35 4-11 6-10 9-10z" fill="#FCFDFD"/>
<path transform="translate(475,245)" d="m0 0 10 2 10 9 9 13 4 11 1 36-5-2-9-7-16-9-6-7-3-16-3-14-2-6 1-5 4-4z" fill="#FCFDFD"/>
<path transform="translate(505,513)" d="m0 0h3l1 6-1 67h-20l-7-6-5-10-1-4v-14l5-10 8-15 6-7z" fill="#FCFDFD"/>
<path transform="translate(544,513)" d="m0 0 5 2 9 6 8 9 8 16 3 7v12l-3 9-4 7-5 4-2 1h-19z" fill="#FCFDFD"/>
<path transform="translate(850,482)" d="m0 0h9l9 4 6 7 3 8v8l-5 10-8 6-6 2h-9l-8-4-5-5-3-5-1-2v-12l4-8 8-7z" fill="#131F1F"/>
<path transform="translate(194,482)" d="m0 0h8l9 4 7 8 2 5v11l-4 8-8 7-6 2h-9l-10-5-6-7-2-6v-8l4-10 8-7z" fill="#131F1F"/>
<path transform="translate(544,653)" d="m0 0 8 6 13 8 8 5 6 7 5 16v9l-5 5-3 1h-9l-8-4-7-8-6-12-2-8-1-22z" fill="#FCFDFD"/>
<path transform="translate(507,654)" d="m0 0h2l-1 26-4 12-8 11-8 6-3 1h-9l-5-3-3-3v-10l5-15 7-8 18-10z" fill="#FCFDFD"/>
<path transform="translate(463,797)" d="m0 0 15 2 2 1-3 27-6 43-11-1-7-2 1-14 8-55z" fill="#152020"/>
<path transform="translate(520,137)" d="m0 0h12l8 4 5 7 1 3v11l-5 8-7 5-3 1h-11l-8-5-4-5-2-5v-9l4-8 5-5z" fill="#131F1F"/>
<path transform="translate(395,619)" d="m0 0 2 3 5 8 7 6-3 5-7 7-1 6-9 1-7 4h-5l-5-5-1-3v-11l5-6h7l11-11z" fill="#63696A"/>
<path transform="translate(655,623)" d="m0 0 4 2 5 5 4 3v2l8-1 4 5 1 10-2 6-5 4h-6l-4-3-10-1-1-7-11-11 5-4 7-8z" fill="#63696A"/>
<path transform="translate(492,378)" d="m0 0h16l1 2v31l-5-1-8-4-13-3-5-5v-10l2-4 5-4z" fill="#FCFDFD"/>
<path transform="translate(544,378)" d="m0 0h14l9 3 5 4 2 4v8l-3 5-3 2-15 4-9 4z" fill="#FCFDFD"/>
<path transform="translate(321,543)" d="m0 0 9 6 11 10 2 2-8 5-4 2-2 4-4 5-5 11-7-2-6-6-1-9 4-8 8-9 2-4z" fill="#63696A"/>
<path transform="translate(376,290)" d="m0 0h16l9 12 8 7-5 5-4 5-4 9-4-5-7-8-4-3-7-4-3-4v-8l3-5z" fill="#63696A"/>
<path transform="translate(814,619)" d="m0 0h7l6 3 4 5 2 5-1 8-3 5-7 4-6 1-9-3-5-7v-10l5-8z" fill="#142020"/>
<path transform="translate(317,219)" d="m0 0h9l6 3 4 5 1 3v8l-4 7-7 4h-9l-6-3-4-5-1-9 3-7 6-5z" fill="#142020"/>
<path transform="translate(660,290)" d="m0 0h16l4 4 1 6-2 6-5 5-5 3-12 12-9-12-5-5h2l2-4 6-6h2l2-4z" fill="#63696A"/>
<path transform="translate(794,298)" d="m0 0h10l6 4 3 4 1 3v8l-3 5-6 5-3 1h-8l-7-4-3-5-1-7 3-9 5-4z" fill="#141F1F"/>
<path transform="translate(645,162)" d="m0 0h8l6 3 4 5 2 6-1 7-6 7-4 2h-10l-5-3-4-5-1-3v-8l5-8z" fill="#152020"/>
<path transform="translate(726,219)" d="m0 0h9l7 4 3 5 1 10-4 6-5 4-2 1h-9l-7-4-4-8 1-9 4-6z" fill="#142020"/>
<path transform="translate(399,162)" d="m0 0h8l6 3 4 5 1 3v9l-4 6-6 4h-11l-7-6-2-4v-9l3-6 5-4z" fill="#142020"/>
<path transform="translate(837,381)" d="m0 0 8 2 5 4 3 7-1 9-5 6-7 3-9-1-7-6-2-10 3-7 5-5z" fill="#152020"/>
<path transform="translate(213,381)" d="m0 0 7 1 6 4 4 8-1 9-6 7-6 2-9-1-6-5-2-4v-11l4-6 5-3z" fill="#142020"/>
<path transform="translate(248,298)" d="m0 0h10l7 4 3 6v10l-4 6-7 4h-8l-7-4-3-4-1-10 4-8z" fill="#142020"/>
<path transform="translate(233,619)" d="m0 0 9 1 6 5 3 8-2 9-6 6-3 1h-10l-6-4-3-4-1-3v-7l3-6 6-5z" fill="#141F1F"/>
<path transform="translate(292,698)" d="m0 0h9l6 4 3 4 1 3v8l-4 7-4 3-3 1h-8l-7-4-3-5-1-8 3-8 5-4z" fill="#142020"/>
<path transform="translate(752,698)" d="m0 0h8l6 3 4 5 1 3v8l-3 5-6 5-2 1h-8l-6-3-4-5-1-9 3-8 5-4z" fill="#152021"/>
<path transform="translate(730,543)" d="m0 0h1l2 9 7 11 1 4 5 4-1 9-5 5-6 3h-2l-7-14-8-9-7-4 5-5 8-7 6-4z" fill="#63696A"/>
<path transform="translate(204,566)" d="m0 0h7l6 4 3 5v7l-4 7-6 3-8-1-5-4-2-3v-9l3-5z" fill="#162121"/>
<path transform="translate(841,566)" d="m0 0h7l6 4 3 5v7l-4 7-7 3-7-1-6-5-1-3v-8l4-6z" fill="#172222"/>
<path transform="translate(462,152)" d="m0 0 6 1 6 5 1 3v7l-4 6-6 3-8-1-5-6-1-2 1-9 4-5z" fill="#162121"/>
<path transform="translate(584,153)" d="m0 0h10l5 4 2 4v7l-4 6-7 3-7-1-5-5-1-2v-9l5-6z" fill="#152121"/>
<path transform="translate(524,472)" d="m0 0 7 1 5 4 2 4-1 9-4 5-2 1h-10l-5-4-2-4v-8l5-6z" fill="#FCFDFD"/>
<path transform="translate(678,398)" d="m0 0h8l6 6v9l-4 5-2 1h-8l-6-5-1-2v-7l5-6z" fill="#FCFDFD"/>
<path transform="translate(367,398)" d="m0 0h7l6 5 1 2v8l-4 5-2 1h-8l-6-5-1-2v-7l3-5z" fill="#FCFDFD"/>
<path transform="translate(422,598)" d="m0 0h7l4 2 3 5v8l-4 5-3 1h-7l-5-4-2-5 1-7z" fill="#FCFDFD"/>
<path transform="translate(623,598)" d="m0 0h7l6 5 1 2v7l-3 5-4 2h-7l-6-5-1-9 5-6z" fill="#FCFDFD"/>
<path transform="translate(622,327)" d="m0 0h8l5 4 2 5-1 6-4 5-8 1-5-3-3-4v-8l4-5z" fill="#FCFDFD"/>
<path transform="translate(422,327)" d="m0 0h8l5 4 2 7-3 7-6 3-7-1-5-5v-9l4-5z" fill="#FCFDFD"/>
<path transform="translate(349,769)" d="m0 0 7 4 5 5v9l-5 5-7-1-9-6 1-5z" fill="#FCFDFD"/>
<path transform="translate(736,565)" d="m0 0 4 1 6 5-1 9-5 5-6 3h-2l-6-13v-2z" fill="#FCFDFD"/>
<path transform="translate(313,565)" d="m0 0 4 1 9 8-6 14-7-2-6-6-1-9z" fill="#FCFDFD"/>
<path transform="translate(709,796)" d="m0 0 5 1 3 4-1 5-5 5-12 6-5-9 1-4 11-7z" fill="#FCFDFD"/>
<path transform="translate(692,775)" d="m0 0 6 1 3 6-2 4-11 6h-2l-5-9 1-3z" fill="#FCFDFD"/>
</svg>
